# xmcd CD database file
#
# Track frame offsets:
#	150
#	23761
#	51008
#	72958
#	107373
#	125087
#	144630
#	166534
#	190946
#	209935
#	232961
#	249171
#	270762
#	292252
#	313171
#
# Disc length: 4465 seconds
#
# Revision: 0
# Processed by: cddbd v1.5.1PL2 Copyright (c) Steve Scherf et al.
# Submitted via: CDex 1.60beta1-cs1
#
DISCID=d7116f0f
DTITLE=Michel Pepe - Harmonia Terra
DYEAR=2006
DGENRE=New Age
TTITLE0=La Terre Des Mages
TTITLE1=Source  D Amour
TTITLE2=Le Royaume Du Soleil
TTITLE3=Stratospheria
TTITLE4=Fluide Magnetique
TTITLE5=Les Jardins Eternels
TTITLE6=Le Lac Des Elementaux
TTITLE7=La Flamme Du Coeur
TTITLE8=La Rose Des Vents
TTITLE9=Aeterna Stella
TTITLE10=Le Livre Des Pierres
TTITLE11=La Coupe D Abondance
TTITLE12=La Danse Du Sable
TTITLE13=L Aigle Blanc
TTITLE14=La Mere Des Etoiles
EXTD=YEAR: 2006
EXTT0=
EXTT1=
EXTT2=
EXTT3=
EXTT4=
EXTT5=
EXTT6=
EXTT7=
EXTT8=
EXTT9=
EXTT10=
EXTT11=
EXTT12=
EXTT13=
EXTT14=
PLAYORDER=
